<?xml version="1.0" standalone="no"?>
<!DOCTYPE svg PUBLIC "-//W3C//DTD SVG 20010904//EN"
 "http://www.w3.org/TR/2001/REC-SVG-20010904/DTD/svg10.dtd">
<svg version="1.0" xmlns="http://www.w3.org/2000/svg"
 width="512.000000pt" height="512.000000pt" viewBox="0 0 512.000000 512.000000"
 preserveAspectRatio="xMidYMid meet">
<metadata>
Created by potrace 1.11, written by Peter Selinger 2001-2013
</metadata>
<g transform="translate(0.000000,512.000000) scale(0.100000,-0.100000)"
fill="#000000" stroke="none">
<path d="M185 5046 c-27 -13 -62 -36 -77 -52 -62 -66 -58 107 -58 -2432 0
-1795 3 -2324 12 -2356 16 -54 90 -128 144 -144 60 -18 4648 -18 4708 0 54 16
128 90 144 144 18 60 18 4648 0 4708 -16 54 -90 128 -144 144 -32 9 -562 12
-2360 12 l-2319 0 -50 -24z m4641 -114 c23 -12 54 -36 69 -54 51 -60 58 -90
59 -266 0 -89 -3 -162 -7 -162 -5 0 -5 -5 -1 -12 10 -16 11 -1588 1 -1588 -5
0 -5 -5 -1 -12 11 -17 11 -1588 0 -1588 -5 0 -5 -5 0 -12 5 -7 9 -209 8 -448
-1 -478 -1 -485 -61 -551 -68 -75 -23 -72 -961 -73 -472 -1 -842 3 -849 8 -8
5 -13 5 -13 0 0 -5 -595 -9 -1367 -8 l-1368 1 -41 22 c-57 30 -94 72 -113 128
-15 44 -16 249 -15 2258 l0 2210 22 40 c38 71 84 110 146 122 20 5 1030 8
2244 7 l2207 0 41 -22z"/>
<path d="M1995 3591 c-64 -17 -143 -67 -206 -130 -75 -76 -97 -107 -176 -262
-85 -165 -126 -198 -253 -200 -48 -2 -51 -3 -57 -30 -3 -16 -5 -32 -4 -36 0
-5 46 -9 102 -10 55 0 102 -3 104 -5 4 -3 -41 -164 -186 -673 -33 -115 -62
-217 -64 -225 -2 -8 -18 -62 -35 -119 -53 -178 -112 -271 -197 -311 -81 -38
-148 -23 -105 23 45 48 15 107 -54 107 -67 0 -110 -69 -79 -129 31 -61 138
-85 233 -54 213 72 386 353 523 853 11 38 27 96 34 120 38 136 80 289 93 340
9 36 19 67 23 70 4 3 42 5 83 4 75 -1 75 -1 85 29 6 16 11 33 11 38 0 4 -34 7
-75 6 -41 0 -77 1 -79 4 -9 9 116 365 133 379 3 3 13 18 20 33 22 42 82 103
119 122 18 9 50 15 70 13 34 -3 37 -5 36 -33 -1 -16 -6 -47 -12 -68 -9 -34 -8
-39 15 -57 87 -68 189 40 128 134 -38 58 -146 89 -230 67z"/>
<path d="M2880 3550 c-36 -27 -70 -53 -75 -57 -98 -76 -278 -250 -349 -336
-21 -26 -43 -44 -49 -40 -6 4 -7 1 -2 -6 4 -7 -1 -22 -13 -34 -29 -32 -104
-152 -141 -225 -32 -63 -85 -213 -95 -265 -3 -15 -10 -55 -16 -90 -29 -153
-15 -380 33 -542 32 -109 164 -406 187 -420 6 -4 17 -2 22 3 8 8 0 39 -26 108
-20 53 -48 140 -61 193 -21 85 -23 114 -20 246 4 155 7 182 31 300 8 39 17 81
20 95 37 183 202 595 270 671 8 8 14 19 14 23 0 14 108 153 168 217 33 35 90
87 126 114 67 51 75 65 53 83 -10 8 -29 -1 -77 -38z"/>
<path d="M4088 3589 c-15 -9 -15 -14 6 -62 25 -56 72 -196 80 -237 3 -14 10
-42 15 -63 12 -49 7 -299 -7 -392 -24 -152 -102 -438 -151 -550 -5 -11 -19
-45 -31 -75 -18 -46 -86 -175 -125 -239 -16 -26 -49 -75 -58 -86 -4 -5 -18
-24 -30 -41 -45 -64 -175 -193 -255 -255 -23 -17 -31 -30 -26 -42 9 -24 15
-22 80 28 33 24 64 48 69 52 56 42 157 133 235 212 240 242 373 465 424 711
25 124 27 141 30 245 6 198 -36 385 -136 605 -17 36 -31 70 -32 76 -1 7 -6 18
-12 25 -5 8 -19 31 -29 52 -24 46 -26 48 -47 36z"/>
<path d="M3600 3020 c-45 -8 -74 -24 -135 -74 -61 -50 -62 -51 -132 -154 -31
-45 -61 -85 -67 -89 -6 -3 -8 -3 -5 1 7 7 -29 139 -54 196 -8 19 -29 54 -46
78 -31 42 -33 43 -74 37 -49 -8 -72 -13 -107 -20 -38 -7 -92 -16 -118 -20 -13
-1 -27 -6 -32 -11 -18 -18 6 -32 60 -35 62 -3 94 -14 129 -43 33 -29 48 -69
91 -236 l37 -144 -27 -46 c-129 -218 -228 -348 -266 -350 -6 0 -28 13 -50 30
-73 55 -154 26 -154 -55 0 -56 44 -95 107 -95 103 0 216 114 363 363 l45 77
12 -47 c7 -27 15 -61 17 -78 7 -39 51 -202 65 -238 27 -70 96 -96 163 -61 65
34 218 204 218 242 0 9 -30 26 -35 20 -1 -2 -16 -25 -34 -51 -41 -60 -103
-107 -132 -100 -27 7 -42 44 -74 180 -15 59 -37 154 -51 210 -13 57 -24 107
-24 112 0 18 98 158 144 204 52 54 31 51 194 31 65 -8 97 16 97 74 0 66 -53
105 -125 92z"/>
</g>
</svg>
